<svg xmlns="http://www.w3.org/2000/svg" width="446" height="446" viewBox="0 0 446 446" id="youtube">
  <g transform="translate(-1296.552 -1298)">
    <g>
      <rect width="446" height="446" x="1296.552" y="1298" fill="#fe0000" ry="0"></rect>
      <g stroke-width=".721" transform="matrix(1.38455 0 0 1.38889 290.251 1166.02)">
        <path fill="#fe0000" d="m 864.95878,221.44392 60.15999,34.56 -60.15999,34.56 z"></path>
        <path fill="#fff" d="m 998.07875,200.32391 c -2.55998,-9.6 -10.23998,-17.27999 -19.83998,-20.48 -17.92,-4.48 -90.23999,-4.48 -90.23999,-4.48 0,0 -72.31998,0 -90.24,4.48 -9.59998,3.20001 -17.27999,10.88 -19.83999,20.48 -5.12,17.92001 -5.12,55.68001 -5.12,55.68001 0,0 0,37.11998 5.12,55.67999 2.56,9.6 10.24001,17.28 19.83999,19.83999 17.92002,5.12001 90.24,5.12001 90.24,5.12001 0,0 72.31999,0 90.23999,-5.12001 9.6,-2.55999 17.28,-10.23999 19.83998,-19.83999 5.12005,-18.56001 5.12005,-55.67999 5.12005,-55.67999 0,0 0,-37.76 -5.12005,-55.68001 z m -133.11997,90.24 c 0,-69.11999 0,-69.11999 0,-69.11999 60.15999,34.56 60.15999,34.56 60.15999,34.56 z"></path>
      </g>
    </g>
  </g>
</svg>
